<?xml version="1.0" encoding="utf-8"?>
<!-- Generator: Adobe Illustrator 22.0.1, SVG Export Plug-In . SVG Version: 6.00 Build 0)  -->
<svg version="1.1" id="Layer_1" xmlns="http://www.w3.org/2000/svg" xmlns:xlink="http://www.w3.org/1999/xlink" x="0px" y="0px"
	 viewBox="0 0 20 12.5" style="enable-background:new 0 0 20 12.5;" xml:space="preserve">
<style type="text/css">
	.st0{fill:#F4F4F4;}
	.st1{fill:#555D66;}
	.st2{fill:#113754;}
	.st3{fill:#3DA0D4;}
</style>
<g id="XMLID_43896_">
	<path class="st0" d="M82.5-0.9H64.9c-0.7,0-1.2,0.5-1.2,1.2v11.9c0,0.7,0.5,1.2,1.2,1.2h17.6c0.7,0,1.2-0.5,1.2-1.2V0.3
		C83.7-0.4,83.2-0.9,82.5-0.9z"/>
</g>
<rect id="XMLID_27593_" x="73.9" y="7" class="st1" width="8.3" height="0.5"/>
<rect id="XMLID_1_" x="73.9" y="5.8" class="st1" width="8.3" height="0.5"/>
<rect id="XMLID_100_" x="73.9" y="4.8" class="st1" width="8.3" height="0.5"/>
<rect id="XMLID_42880_" x="73.9" y="8" class="st1" width="8.3" height="0.5"/>
<rect id="XMLID_42649_" x="65.3" y="9" class="st1" width="17" height="0.5"/>
<rect id="XMLID_42418_" x="65.3" y="10" class="st1" width="17" height="0.5"/>
<rect id="XMLID_42187_" x="73.9" y="2.4" class="st1" width="2.3" height="1.7"/>
<rect id="XMLID_41956_" x="76.9" y="2.4" class="st1" width="2.3" height="1.7"/>
<rect id="XMLID_41725_" x="79.9" y="2.4" class="st1" width="2.3" height="1.7"/>
<rect id="XMLID_39345_" x="65.3" y="2.4" class="st1" width="7.1" height="5"/>
<g id="XMLID_27027_">
	
		<image style="overflow:visible;opacity:0.1;" width="13" height="13" xlink:href="D276F09D.png"  transform="matrix(1 0 0 1 62.7407 -2.4366)">
	</image>
	<g>
		<g>
			<path class="st0" d="M71.7,7.2c-0.1-0.5-0.3-1-0.6-1.4c-0.2-0.4-0.5-0.6-0.8-0.9c0,0-0.1,0-0.1-0.1c0.1-0.1,0-0.1-0.1-0.2
				c-0.1,0-0.1-0.1,0-0.1c0.5-0.6,0.6-1.2,0.3-1.9c0,0,0-0.1-0.1-0.1c-0.3-0.6-0.9-1-1.6-0.9c-0.7,0-1.3,0.3-1.6,0.9
				c0,0,0,0.1,0,0.1c-0.3,0.7-0.2,1.3,0.2,1.9c0.1,0.1,0.1,0.1,0,0.2c0,0-0.1,0-0.1,0.1c0,0.1,0,0.1-0.1,0.2
				c-0.7,0.6-1.2,1.3-1.4,2.2c0,0.3,0,0.2,0.2,0.4c5.6,0,5.6,0,5.6,0S71.8,7.3,71.7,7.2z M70.1,5C70.1,5,70.1,5,70.1,5
				c-0.6,0.5-0.9,1.1-1.1,1.8c0,0,0,0.1,0,0.1c0,0.1,0,0.1-0.1,0.1c-0.1,0-0.1-0.1-0.1-0.1c0-0.1-0.1-0.3-0.1-0.4
				c-0.2-0.4-0.4-0.8-0.6-1.1c-0.1-0.1-0.1-0.1-0.2,0c-0.5,0.6-0.8,1.2-1,2c0,0-0.1,0.1-0.1,0.1s-0.2-0.1-0.2-0.2
				c0.2-0.8,0.6-1.4,1.2-2c0,0,0.1-0.1,0.1-0.1c0,0,0.1,0,0-0.1c0,0-0.1,0-0.1,0c-0.1,0.1-0.2,0.1-0.2,0.2c-0.5,0.5-0.8,1.1-1,1.8
				c0,0,0,0.1-0.1,0.1c-0.1,0-0.1-0.1,0-0.1c0.2-0.9,0.6-1.6,1.3-2.2c0.1-0.1,0.1,0,0.2,0c0.5,0.5,0.9,1.1,1.1,1.8c0,0,0,0.1,0,0.1
				c0,0.1,0.1,0.1,0.1,0c0,0,0,0,0-0.1c-0.1-0.1-0.1-0.2-0.1-0.3c-0.1-0.2-0.1-0.4-0.1-0.6c0,0,0,0,0,0c-0.1-0.1,0.2-0.2,0-0.3
				c-0.1-0.1-0.1-0.2-0.1-0.3c-0.1,0-0.1,0.1-0.2,0.2c-0.2-0.3-0.4-0.6-0.7-0.8c0,0,0,0,0-0.1c0,0,0,0,0.1,0c0,0,0.1,0,0.1,0.1
				c0.6,0.5,1.5,0.4,2.1,0c0,0,0.1,0,0.1-0.1c0,0,0.1,0,0.1,0c0,0,0,0.1,0,0.1c-0.3,0.2-0.5,0.5-0.7,0.8c-0.1,0-0.1-0.1-0.1-0.1
				c0,0.1-0.1,0.2-0.2,0.2c0,0,0,0,0,0.1c0.1,0.1,0,0.2,0,0.3c0,0.1-0.1,0.3-0.1,0.4c0.1,0,0.1-0.1,0.1-0.1c0.2-0.5,0.5-0.9,0.9-1.3
				C70,5,70,5,70.1,5C70.1,4.9,70.1,4.9,70.1,5C70.1,5,70.1,5,70.1,5z"/>
		</g>
	</g>
</g>
<g>
	<path id="XMLID_4906_" class="st2" d="M7.4,8.8c-0.9,0.9-2.2,1.5-3.6,1.5c-1.5,0-2.9-0.7-3.8-1.7c0.2-0.1,0.6-0.2,0.9-0.4
		C2.4,7.7,2.3,8,2.3,7c0-0.7-0.3-0.3-0.5-1.5C1.7,5,1.6,5.3,1.5,4.5c-0.1-0.4,0.1-0.4,0-0.6c0-0.2,0-0.4-0.1-0.8
		c0-0.5,0.4-1.8,2.1-1.8c1.7,0,2.1,1.3,2.1,1.8c0,0.4-0.1,0.6-0.1,0.8c0,0.2,0.1,0.2,0,0.6C5.4,5.3,5.3,5,5.2,5.4
		C5,6.7,4.7,6.3,4.7,7c0,1-0.1,0.7,1.4,1.3C6.7,8.5,7.1,8.7,7.4,8.8z"/>
	<path class="st3" d="M19.7,0H6.6c1.9,1,3.3,3,3.3,5.3c0,3.2-2.5,5.8-5.6,6v0.7c0,0.2,0.1,0.3,0.3,0.3h15.1c0.2,0,0.3-0.1,0.3-0.3
		V0.4C20,0.2,19.9,0,19.7,0z M18.6,9.8h-7.4V9.1h7.4V9.8z M18.6,8.7h-7.4V8.1h7.4V8.7z M18.6,7.7h-7.4V7h7.4V7.7z M18.6,6.6h-7.4V6
		h7.4V6.6z M18.6,5.4h-7.4V2.8h7.4V5.4z"/>
	<path id="XMLID_2084_" class="st2" d="M8.8,5.4c0,1.2-0.4,2.3-1.1,3.1l-0.1,0C7.3,8.3,6.8,8.1,6.2,7.9C5.9,7.8,5.7,7.7,5.5,7.6
		C5.3,7.6,5.2,7.5,5.1,7.5c0-0.1,0-0.2,0-0.3V7c0-0.2,0-0.2,0.1-0.2c0.2-0.2,0.3-0.5,0.5-1.2c0-0.1,0-0.2,0.1-0.2
		C5.8,5.2,5.8,5,5.9,4.6c0.1-0.3,0-0.5,0-0.7c0,0,0,0,0,0l0-0.2c0-0.1,0-0.3,0.1-0.6c0-0.4-0.1-1-0.6-1.5C5.1,1.3,4.5,0.9,3.5,0.9
		c-0.1,0-0.3,0-0.3,0V0.7c0-0.2,0.1-0.3,0.3-0.3c0.1,0,0.2,0,0.3,0C6.6,0.4,8.8,2.6,8.8,5.4z"/>
</g>
</svg>
